<svg width="28" height="28" viewBox="0 0 28 28" fill="none" xmlns="http://www.w3.org/2000/svg">
<path d="M14 18.667C14.6188 18.667 15.2123 18.9128 15.6499 19.3504C16.0875 19.788 16.3333 20.3815 16.3333 21.0003C16.3333 21.6192 16.0875 22.2127 15.6499 22.6502C15.2123 23.0878 14.6188 23.3337 14 23.3337C13.3811 23.3337 12.7876 23.0878 12.35 22.6502C11.9125 22.2127 11.6666 21.6192 11.6666 21.0003C11.6666 20.3815 11.9125 19.788 12.35 19.3504C12.7876 18.9128 13.3811 18.667 14 18.667ZM14 11.667C14.6188 11.667 15.2123 11.9128 15.6499 12.3504C16.0875 12.788 16.3333 13.3815 16.3333 14.0003C16.3333 14.6192 16.0875 15.2127 15.6499 15.6502C15.2123 16.0878 14.6188 16.3337 14 16.3337C13.3811 16.3337 12.7876 16.0878 12.35 15.6502C11.9125 15.2127 11.6666 14.6192 11.6666 14.0003C11.6666 13.3815 11.9125 12.788 12.35 12.3504C12.7876 11.9128 13.3811 11.667 14 11.667ZM14 4.66699C14.6188 4.66699 15.2123 4.91282 15.6499 5.35041C16.0875 5.78799 16.3333 6.38149 16.3333 7.00033C16.3333 7.61916 16.0875 8.21266 15.6499 8.65024C15.2123 9.08783 14.6188 9.33366 14 9.33366C13.3811 9.33366 12.7876 9.08783 12.35 8.65024C11.9125 8.21266 11.6666 7.61916 11.6666 7.00033C11.6666 6.38149 11.9125 5.78799 12.35 5.35041C12.7876 4.91282 13.3811 4.66699 14 4.66699Z" fill="#5B7E9A"/>
</svg>
