<svg width="28" height="28" viewBox="0 0 28 28" fill="none" xmlns="http://www.w3.org/2000/svg">
<path d="M24.5 22.1666V23.3333H3.5V22.1666L5.83333 19.8333V12.8333C5.83333 9.21659 8.20167 6.03159 11.6667 5.00492V4.66659C11.6667 4.04775 11.9125 3.45425 12.3501 3.01667C12.7877 2.57908 13.3812 2.33325 14 2.33325C14.6188 2.33325 15.2123 2.57908 15.6499 3.01667C16.0875 3.45425 16.3333 4.04775 16.3333 4.66659V5.00492C19.7983 6.03159 22.1667 9.21659 22.1667 12.8333V19.8333L24.5 22.1666ZM16.3333 24.4999C16.3333 25.1188 16.0875 25.7122 15.6499 26.1498C15.2123 26.5874 14.6188 26.8333 14 26.8333C13.3812 26.8333 12.7877 26.5874 12.3501 26.1498C11.9125 25.7122 11.6667 25.1188 11.6667 24.4999" fill="white"/>
</svg>
